<svg version="1.0" xmlns="http://www.w3.org/2000/svg" width="604" height="604" viewBox="0 0 453 453"><path d="M113.5 92c-3.3 1.6-8.1 4.5-10.8 6.4-5.8 4.3-13.9 6.8-23.4 7.4-7.1.4-7.3.5-10.8 4.8-4.2 5.1-6.5 10.9-5.8 15 1.3 8.7 5.8 24.9 7.7 27.7 1.5 2.3 3.1 3.3 5.3 3.5 2.7.3 3.6-.3 6.1-3.7 1.6-2.2 4-6.5 5.2-9.6 1.2-3 2.6-5.5 3-5.5 1.7 0 2.2 6.4 1.6 19.8-.7 16.9-.1 19.1 7.3 24.7 4.4 3.4 5.7 5.1 6.8 8.8.8 2.6 2 4.7 2.7 4.7 3.4 0 4.1 5.8 3.8 31-.2 18.6 0 26.3 1.2 32.1 2.6 13.5 7.9 27.3 15.4 40.2 4.2 7.2 3.6 8.6-.7 1.8-3.9-6-11.1-12.9-14.3-13.5-1.3-.3-11-.7-21.6-1.1l-19.4-.6-7.8 4.2c-15.6 8.3-22.8 17.3-21.7 27l.6 4.9H0v12h23c22.8 0 22.9 0 24.1 2.2 1.9 3.7 5 6.7 6.4 6.2.8-.3 2.2 1.4 3.6 4.3 2.4 5 6.3 9.3 8.5 9.3.7 0 2.1-1.8 3-4.1 1.6-3.5 2.1-3.9 4.3-3.4 1.4.4 3.2 1.6 4 2.8 2.8 4.1 7.3 7.7 9.6 7.7 1.8 0 2.6-.8 3.5-3.5 1.2-3.6 6.1-8.5 8.7-8.5.8 0 3.4 1.6 5.8 3.5l4.3 3.6 2-2.6c1.1-1.4 2.3-3.9 2.7-5.5.4-1.8 1.9-3.7 4-5 1.8-1.1 4-3.2 4.9-4.5 1.6-2.4 2.1-2.5 10.9-2.5h9.3l1.6 13.5c1.7 13.9 4.2 21.6 7.6 23.1.9.4 4.6 1.1 8.2 1.5 3.6.5 8.4 1.1 10.6 1.5 3.8.5 4.5.3 7.6-2.8 9-8.7 11.9-10.8 14.6-10.8 3.6.1 4.3.7 15.1 13.3 5 5.9 11 11.9 13.1 13.3 6.4 4.3 9.6 2.6 21.1-11.2 15.2-18.3 16.5-18.7 26.5-9.2 8.1 7.8 8.7 8.1 13.2 7.4 2.1-.4 7-1 11.1-1.5 6.1-.7 7.7-1.2 9.2-3.2 2.6-3.4 4.8-12.1 6.1-24.3l1.2-10.6h7.9c7.3 0 8.1.2 10.5 2.8 1.5 1.5 3.6 3.4 4.8 4.2 1.2.8 3 3.6 4.2 6.3 1.2 2.6 2.8 5 3.6 5.3.9.4 3.2-.7 5.5-2.5 2.1-1.7 4.4-3.1 5.1-3.1 3 0 7 3.6 8.5 7.7 1.6 4.2 1.9 4.4 4.9 3.8 2-.4 4.6-2.4 7.4-5.6 2.4-2.7 5.2-4.9 6.1-4.9 1.1 0 2.5 1.5 3.6 4 1 2.2 2.3 4 2.9 4 3.4 0 9.6-8.2 9.6-12.6 0-1.2.6-1.5 2.5-1 2.1.5 2.8 0 5-3.9l2.7-4.5H453v-12h-46.9l.6-3.5c.3-1.9 0-5.6-.8-8.2-1.7-6.4-11.1-15.6-20.5-20.3-7.6-3.8-5.3-3.6-35.6-3.2l-13.7.2-4.6 3.5c-2.5 1.9-4.7 3.5-5 3.5-.3 0 .8-2.6 2.4-5.8 9.4-18.6 11.4-30.1 10.9-62.8l-.3-25.3 3.1-3.3c1.8-1.9 3.4-4.9 3.8-7.1.5-2.7 1.4-4 3-4.7 4-1.5 9.4-6.9 10.6-10.6.8-2.4 1-7.6.5-16.8-.7-12.6-.2-19.6 1.4-19.6.3 0 2 3 3.5 6.6 3.8 8.6 7 12.4 10.5 12.4 5 0 8-5.4 11.2-20.3 2.5-12.1 2.4-14.7-1.1-21.7-3.7-7.4-6-9-12.6-9-7.9 0-17.9-3.5-26.9-9.4-4.4-3-9.5-5.8-11.4-6.5-8-2.6-19.9-.5-31.5 5.8-3.9 2.1-11 5.9-15.8 8.5l-8.8 4.8-14.7-1.5c-18.1-1.8-62.4-1.6-80.3.2l-12.5 1.4-5.5-3.7c-7.6-5.1-26.5-14.3-32-15.5-8.2-1.9-14-1.3-20.5 1.9zm26.4 2.6c3.6 1.3 10.2 4.6 14.6 7.3s10.3 6 13.1 7.4l5.2 2.6 11.3-1.4c15.6-1.8 69.6-1.9 84.2 0 5.9.8 11.5 1.1 12.5.8.9-.4 5.2-2.8 9.5-5.5 15.1-9.4 27-14.1 36.2-14.2 8.3-.1 15.8 3.5 23.9 11.7 7.1 7 10.9 13.9 15.2 26.9 1.5 4.8 2.9 8.6 3.1 8.4.1-.1-.8-5.6-2.2-12.2-1.4-6.5-2.5-13-2.5-14.3 0-2.1.3-2.3 3.1-1.7 1.7.3 4.9 2 7 3.7 3.6 2.8 5.8 2.7 2.4-.1-3.5-2.9-.1-5.6 3.5-2.7 6.6 5.2 7.3 10.4 3.9 26.8-2.4 11.9-4.4 16.9-6.5 16.9-4.5 0-7.3-4-12-17.3-6.9-19.1-15.2-31-26.2-37.4-4-2.4-5.8-2.8-12.2-2.8-6.3 0-8.5.5-13.5 2.9-6.3 3.1-16.5 12.4-16.5 15 0 1.3 1.2 1.6 6 1.6 6.2 0 8.1 1.3 3.3 2.3-1.6.3-3.7 1.3-4.8 2.1-2 1.5-2 1.5.5 1.6 3.8.1 7 1.1 6.4 2.1-.3.5-1.3.9-2.2.9-1 0-2.2.8-2.9 1.9-1 1.6-.7 2 2.3 3.5 1.9.9 4.8 1.6 6.4 1.6 4.2 0 3.7 1.5-1 2.9-2.2.6-4 1.5-4 1.9 0 .4 2.4 2.2 5.3 3.9 2.8 1.8 6.6 4.4 8.2 5.8 3 2.6 3 2.6.5 2.2-1.4-.3-3.3-.2-4.3.2-1.7.6-1.7.8.2 2.5 1.4 1.3 4 2 7.9 2.2 3.1.2 5.8.3 6 .4.1 0-.4 1.3-1.3 3-2.4 4.7-2 6.3 1.5 5.5 3.1-.7 3.9.2 1.9 2.2-.7.7-.9 1.9-.5 2.8.5 1.3 1.6 1.6 4.9 1.3 4.1-.3 4.2-.2 3.9 2.4-.2 1.6-.1 2.8.2 2.8 1.5 0 6.6-5.9 7.3-8.5.7-2.7.9-2.3 1.3 3l.5 6 1.7-3c2.7-4.7 2.3.1-.4 5.5-2.9 5.6-5.4 6.5-10.4 3.8-3.6-1.9-3.8-1.9-2.4-.2 2.7 3.4 4 6.3 4 8.9 0 4.3-1.5 2.8-5.8-5.9-2.3-4.6-6.2-10.6-8.7-13.3l-4.6-4.8 3.6 4.9c9 12.2 9.5 15.2 9.5 53.9 0 30.5-.1 31.4-2.6 40.7-3.1 11.3-8.5 23.4-12.1 27.2-3.2 3.3-6.5 3.6-9.3.8-2.9-2.9-7.2-12.7-7.8-17.8-.2-2.3-.6-4.1-.9-3.9-.2.2.4 10.5 1.3 22.8 2.5 34.1.8 59.5-4.3 65.1-1.9 2.2-5.2 2.3-9.7.4-4.7-2-7.6-6.5-8.6-13.8-2.8-19.7-6-47.1-7-59.4-1.7-21.4-4.4-30.6-10.7-36.6-3.4-3.3-9.2-5.8-13.2-5.8-5.1 0-4.3-1.7 1.5-3.3 8.4-2.4 10.9-1.1 22.3 11.8 3.6 4 4 4.3 2.4 1.5-4-6.4-13.2-15.8-16.7-17-2.9-.9-4.8-.7-12.7 1.6-10.9 3.1-15.8 5-18.2 7.2-.9.8-1.9 1.3-2.2 1-1.2-1.2 4.6-4.7 12-7.3 10.8-3.7 15.5-6.8 15.5-10.1 0-5-9.1-14.9-17.5-19-4.2-2-6.5-2.4-14-2.4-5.2.1-9.9.6-11.1 1.3-3.8 2.1-9 7.2-12.1 11.8-6 8.7-5.4 11.5 3.4 14.9 3.2 1.2 8.4 3.2 11.7 4.6 3.2 1.3 6.2 2.1 6.6 1.9.5-.3.6.4.3 1.4-.5 1.9-.5 1.9-3.8 0-3.9-2.3-15.2-4.9-21.7-4.9-3.9 0-5.4.6-8.3 3.2-3 2.5-7.5 9.3-7.5 11.2 0 .2 1.5-1 3.3-2.7 3.6-3.4 11.2-7.1 12.7-6.2.6.4-1.1 2.3-3.8 4.4-6.4 5.1-10 9.5-12.9 15.9-2.3 4.8-2.4 6.3-2.2 19 .1 10.4-.3 16.8-2 26.7-1.8 10.3-2.1 14.9-1.6 22.1.9 11.6-.6 18.8-5.4 25.6-4.3 6.1-7.4 8.5-12 9.2-6.7 1-8.2-1.2-10.6-15.3-2.7-15.9-3.5-32.7-2-45.2 1.3-11.1 1.3-16 0-8.3-1.2 7-3 11.9-4.5 12.2-1.5.2-4.8-4.7-12.3-18.1-7.6-13.5-13-31.2-14.1-45.7-.3-4.1-.3-18.3.1-31.5.7-21.9 1-24.4 3-28.5l2.2-4.5-4.7 5.2c-2.6 2.9-5 5.3-5.4 5.3-.3 0-1.3-2.1-2.2-4.6-.8-2.5-2.7-5.5-4.1-6.6-3.2-2.5-5.5-6.9-5.4-10.5 0-2.7.1-2.7 1.1-.6 1.5 3.1 2.6 2.9 2.1-.5l-.5-2.7 2.4 2.7c1.2 1.4 3.3 2.9 4.5 3.3 2.1.6 2.2.4 1.7-2.4-.7-3.1.3-4 2.3-2 1.5 1.5 5.4.7 6.7-1.3.8-1.3.7-2.6-.2-5-.6-1.7-1-3.3-.8-3.6.2-.2 1.8.4 3.6 1.3 3.1 1.6 3.1 1.6 2.1-.4-1.7-3.1-1.3-3.6 2.8-3.6 2.7-.1 5-1 7.7-3l3.9-3-4.5-.6c-2.5-.3-3.8-.8-3-1.1.8-.4 3.6-1.4 6.3-2.4 5.1-1.8 10.7-6.8 10.7-9.5 0-1.8-2.7-2.9-7.2-2.9-1.6 0-2.8-.5-2.8-1 0-.6 1.4-1 3-1 1.7 0 4.5-.7 6.2-1.6 3-1.6 3.1-1.7 1.3-3-1-.8-2.5-1.4-3.2-1.4-.7 0-1.3-.4-1.3-.9s2.3-1.1 5-1.5c2.8-.4 5-1.1 5-1.6 0-1.3-4.4-5.1-7.8-6.7-2.4-1.1-2-1.2 3.6-.7 3.8.4 6.2.2 6.2-.4 0-2.1-11.4-12.3-16.8-14.9-4.6-2.2-7-2.8-13.2-2.8-6.4 0-8.2.4-12 2.7-6 3.6-9.8 7.2-14.7 13.8-5.1 6.9-6.6 9.9-10.4 20.8-3.7 10.3-8.6 19-11.3 19.8-3 1-5-2.3-7.9-13.3-4-15.4-4.3-18.3-1.7-23.4 4.1-7.8 6.1-9.9 9.7-9.9 3.6 0 4.2 1 1.8 3-.8.7-1.5 1.7-1.5 2.3 0 .5.8.3 1.8-.5 2.6-2.4 11.1-6.8 12.8-6.8.9 0 1.4.5 1.1 1.2-.3.7-2.2 4.9-4.1 9.3-1.9 4.4-3.8 10-4.1 12.5-.6 4.3-.5 4.2 1.7-2 4.2-11.7 17.2-28.1 26.2-32.7 7.4-3.9 16.6-3.8 27.5.3zM234.7 212c2.6.6 5.8 1.9 7 2.8 2.2 1.7 2.1 1.7-4.7 2-3.9.1-8.5.3-10.2.4-1.8 0-6.3-.3-10.1-.7-5.8-.7-6.5-1-4.9-2.1 4.6-3.2 14.4-4.2 22.9-2.4zm-14.3 12.6c1.1 3 .6 6.1-1.5 8.8-1.6 2.1-2.9 2.6-6.4 2.6-2.4 0-4.6-.4-5-.9-.3-.5 1.5-.9 4.1-.8 5.6.2 7.7-1.9 7.2-7.6-.4-3.8.5-5 1.6-2.1zm12.9 1.7c-.8 5 2.3 8.2 7.7 8.1 2.6-.1 3.8.2 3.2.8-.5.5-2.9.8-5.3.6-4-.3-4.6-.7-6.3-4.1-1.5-3.1-1.6-4.4-.7-6.3 1.5-3.3 2.1-3 1.4.9zm5.8 38.4c8.4 4.2 17.2 15.6 26 33.6 5.8 12.1 9.6 26 10.9 40.6 1 11.4 3.1 19.7 6.1 24.7 2.3 3.7 1.6 6.2-1.8 7-2 .5-3.3-.2-7.1-3.9-6.1-5.8-11.9-9.7-14.7-9.7-2.5 0-7.3 4.5-21.9 20.4-4.8 5.3-9.4 9.6-10.2 9.6-2.7 0-7.4-4.4-16.1-14.7C195 354 192.7 353.5 181 365c-7.1 6.9-9.7 8.2-11.8 5.7-.8-1-.1-2.8 2.8-7.1 4.9-7.2 7.9-16.9 9.1-29.5 1.3-13.7 2.6-20.2 6.6-32.1 4.7-14.4 10.4-25.8 15.2-30.8 2.2-2.3 7.3-5.8 11.3-7.8 4-2 7.7-4.3 8.1-5 .4-.8 1.2-1.4 1.8-1.4 2 0-1.3 4.1-4.6 5.7-3 1.4-3.3 2-2.8 4.5.6 3-.7 3.7-2.6 1.5-.8-1-.7-1.7.2-2.6 2.3-2.5-2.6.5-6.8 4.2-4.8 4.2-9.1 12.4-10 19.3-1.2 9 4.4 32.4 8.2 33.8 2.4.9 3.8-.8 6.3-7.7 3.5-9.7 7.9-17.3 10.7-18.6 4.1-1.9 9.8 1.7 15.8 9.7 2.9 3.8 5.9 6.8 7.1 7 1.4.2 3.2-1 5.4-3.4 7.1-8.1 7.6-15.6 2-27.1-3.8-7.6-14.1-18.9-14.7-16.1-.2.9-1.1 1.9-2 2.2-1.2.5-1.4 0-1.1-2.4.3-1.6.1-3-.3-3-1.4 0-6.9-5.2-6.9-6.5 0-.7 1.5.2 3.3 1.9 1.8 1.7 5.3 4.1 7.8 5.3zM221 267c0 3.5-1.7 4-2.9.7-1-2.6-.6-3.7 1.5-3.7.9 0 1.4 1.1 1.4 3zm4 0c0 2-.5 3-1.5 3s-1.5-1-1.5-3 .5-3 1.5-3 1.5 1 1.5 3zm5-1.3c.1 1.7.1 1.7 1.1 0 1.4-2.5 2.9-2.1 2.9.7 0 2.7-2.1 4.7-2.8 2.7-.3-.9-.7-.9-1.8-.1-.7.7-1.8.9-2.4.5-1.1-.7-1.4-3.8-.3-4.8 1.3-1.3 3.3-.7 3.3 1zm13.4 7.2c1.1.1 1.7.3 1.4.7-.3.3-5 .7-10.4 1-10.7.6-28.5-.5-24.6-1.5 1.9-.5 25.4-.6 33.6-.2zm-134.8 20.7c3.3.4 5.2 1.5 9.5 5.9 8.7 8.7 11.6 15.7 8.5 20.1-1.4 1.8-1.6 1.6-3.7-3.1l-2.3-5-.3 4.5c-.7 9-2.3 14.6-5.1 17.3-4 3.8-7.8 5-11 3.5-3.2-1.6-4.4-5.7-3.8-12.9.4-3.9.1-6.2-.8-7.5-1.3-1.7-1.5-1.6-2.4 2.1-.6 2.2-1.6 7.5-2.1 11.8-1.3 9.5-2.1 11-6.5 13.1-8.2 3.9-12 .9-12.1-9.2 0-3.7.4-8.7.8-11.2 1.3-7.5-1.6-2.9-4.4 6.9-3.2 11.4-3.5 11.7-8.6 9.6-3.3-1.3-4.5-2.4-5.4-5.2-1-3.3-.7-12.7.8-17.1.3-1-.3-.7-1.6.8-1.2 1.4-2.4 3.5-2.7 4.7-1.6 5.8-4.8 0-4.2-7.4.5-6.2 3.5-10.6 11.4-16.5 7.8-6 10.8-6.7 27.4-6.2 8 .3 16.4.7 18.6 1zm269.7.4c15.8 5.9 22.6 15.1 20.3 27.4-.9 4.6-2.1 4.5-4.6-.3-2.6-5.3-4.2-6.1-3.2-1.9.4 1.8.7 6.1.7 9.5 0 5.1-.4 6.6-2.3 8.6-2.9 3.1-7.1 4.3-8.7 2.5-.7-.7-1.9-4.2-2.8-7.8-1.6-6.7-4.5-14.5-5.2-13.9-.2.2.1 4.1.5 8.5.9 8.7.1 14.8-2.3 17.1-1.1 1.1-2.6 1.3-5.7.8-5-.9-8.7-4.3-9.5-8.9-.2-1.7-1-6.5-1.6-10.7-1.1-7.3-2.3-10.9-3.2-9.9-.3.3-.7 4.8-1 10-.4 8.2-.8 9.7-2.7 11.2-2.5 2.1-3.8 2.2-7.5.8-5.6-2.1-8.5-7.6-9.2-17.6-.6-7.9-1.6-8.6-3.4-2.3-1.4 4.4-2.9 4.6-4.4.5-.8-2.2-.4-3.7 1.9-8.1 3.1-6 8.7-12.9 11.9-14.8 1.3-.7 7.9-1.4 15.7-1.8 7.4-.3 15.2-.6 17.2-.7 2.1-.1 6.1.7 9.1 1.8zm-238.4 24.2c1.2 3.5.9 4.3-1.4 3.5-1.6-.7-2.2-6.7-.6-6.7.5 0 1.4 1.4 2 3.2zm173.1 1.7c0 .6-.4 1.3-1 1.6-.5.3-1-.1-1-.9 0-.9.5-1.6 1-1.6.6 0 1 .4 1 .9zM54 332.6c0 4.3-1.5 4.4-2.9.3-1.2-3.6-.7-5.1 1.4-4.2.9.3 1.5 1.8 1.5 3.9zm345-2.2c0 3.1-1 5.6-2.1 5.6-1 0-1.2-4-.3-6.4.9-2.4 2.4-1.9 2.4.8zM65 345.5c0 1.3.3 3 .6 3.9.8 2.2-1.9 2.1-3.9-.2-1.3-1.5-2.2-4.4-1.8-6.3 0-.3 1.2-.4 2.6-.1 1.8.3 2.5 1.1 2.5 2.7zm46-1.3c0 3.8-1.2 6.8-2.5 6.8-1.6 0-2.5-2.2-2.5-6.1 0-2.4.4-2.9 2.5-2.9 1.9 0 2.5.5 2.5 2.2zm233 .7c0 3.9-.9 6.1-2.5 6.1s-2.5-2.2-2.5-6.1c0-2.4.4-2.9 2.5-2.9s2.5.5 2.5 2.9zm43.9 4.7c-2.8 3-3.8 2.1-3.2-2.8.4-2.8 1-3.8 2.7-4 3.1-.4 3.4 3.7.5 6.8zm-300.3-.4c-.3 1.3-.6 3.1-.6 4 0 2.6-2.7 2.2-4.6-.7-2-3.1-.5-5.5 3.3-5.5 2.1 0 2.4.4 1.9 2.2zm279.9 1.2c0 1.6-.7 3.3-1.7 4-2.1 1.3-2.5 1-3.3-3.7-.7-3.8-.7-3.9 2.1-3.5 2.5.2 2.9.7 2.9 3.2z"/><path d="M258.4 112.1c4.4.5 9.1 1.9 13 3.8 7 3.6 9.7 5.8 14.5 12.1 4.5 5.9 14.8 16.6 18.6 19.3 2.3 1.6 1.8.8-1.8-3.3-2.7-3-5.8-7.2-6.9-9.4-2.7-5.2-12.2-15.1-17.5-18.3-5.8-3.4-13.6-5.3-20.8-5.2l-6 .2 6.9.8zM193.3 112.7c.9.2 2.3.2 3 0 .6-.3-.1-.5-1.8-.5-1.6 0-2.2.2-1.2.5zM181.5 115.9c-8 3.8-13.4 8.7-19.1 17.2-2.6 3.9-7.2 9.8-10.3 13.2-3.1 3.3-4.7 5.5-3.6 4.9 2.6-1.4 9.3-8.4 14-14.7 8.8-11.8 16.3-18.4 24.1-21.5 2.7-1 4-1.9 2.9-2-1.1 0-4.7 1.3-8 2.9zM148.2 197.6c-1.2.8-2.9 3-3.8 4.7l-1.6 3.2 2.8-2.6c3.8-3.5 6.7-4.9 10.1-4.9 2.2 0 2.5-.2 1.3-1-2.2-1.5-6.3-1.2-8.8.6zM295.5 196.9c-1.5.6-1 .9 2.4 1.5 2.8.4 5.3 1.7 7.2 3.6 2 1.9 2.9 2.4 2.9 1.3 0-.8-1.3-2.8-2.9-4.4-2.9-2.9-5.8-3.5-9.6-2zM163 197.7c0 .5.5 1.4 1 1.9.7.7-.7 1-4.2 1-3.7-.1-6.2.5-8.3 1.9-2.8 1.9-2.8 2-.7 2.3 1.5.2 2.2 1 2.2 2.5 0 4.6 6 9.7 11.3 9.7 3.7 0 7.7-3.6 7.7-6.9 0-1.6-1.3-4.6-2.8-6.7-3.2-4.3-6.2-7.1-6.2-5.7zm-3 9.4c0 2.4-2.3 2.1-2.8-.4-.2-1 .3-1.7 1.2-1.7 1 0 1.6.9 1.6 2.1zM285.8 199.7c-6.4 7-7.4 11.4-3.5 15.1 4.4 4.1 12.2 2 15.1-4.2.9-1.9 1.6-3.9 1.6-4.4 0-.6 1-1.2 2.3-1.5 1.8-.3 1.4-.7-2.5-2.6-3.6-1.6-5.7-2-8.4-1.5-3.4.6-3.6.6-2.5-1.5 1.6-2.8 1-2.7-2.1.6zm4 7c-.4 2.2-2.2 2-2.6-.1-.2-1 .3-1.6 1.3-1.6s1.5.7 1.3 1.7z"/></svg>