<?xml version="1.0" standalone="no"?>
<!DOCTYPE svg PUBLIC "-//W3C//DTD SVG 20010904//EN"
 "http://www.w3.org/TR/2001/REC-SVG-20010904/DTD/svg10.dtd">
<svg version="1.0" xmlns="http://www.w3.org/2000/svg"
 width="453.000000pt" height="453.000000pt" viewBox="0 0 453.000000 453.000000"
 preserveAspectRatio="xMidYMid meet">
<metadata>
Created by potrace 1.14, written by Peter Selinger 2001-2017
</metadata>
<g transform="translate(0.000000,453.000000) scale(0.100000,-0.100000)"
fill="#000000" stroke="none">
<path d="M1135 3610 c-33 -16 -81 -45 -108 -64 -58 -43 -139 -68 -234 -74 -71
-4 -73 -5 -108 -48 -42 -51 -65 -109 -58 -150 13 -87 58 -249 77 -277 15 -23
31 -33 53 -35 27 -3 36 3 61 37 16 22 40 65 52 96 12 30 26 55 30 55 17 0 22
-64 16 -198 -7 -169 -1 -191 73 -247 44 -34 57 -51 68 -88 8 -26 20 -47 27
-47 34 0 41 -58 38 -310 -2 -186 0 -263 12 -321 26 -135 79 -273 154 -402 42
-72 36 -86 -7 -18 -39 60 -111 129 -143 135 -13 3 -110 7 -216 11 l-194 6 -78
-42 c-156 -83 -228 -173 -217 -270 l6 -49 -219 0 -220 0 0 -60 0 -60 230 0
c228 0 229 0 241 -22 19 -37 50 -67 64 -62 8 3 22 -14 36 -43 24 -50 63 -93
85 -93 7 0 21 18 30 41 16 35 21 39 43 34 14 -4 32 -16 40 -28 28 -41 73 -77
96 -77 18 0 26 8 35 35 12 36 61 85 87 85 8 0 34 -16 58 -35 l43 -36 20 26
c11 14 23 39 27 55 4 18 19 37 40 50 18 11 40 32 49 45 16 24 21 25 109 25
l93 0 16 -135 c17 -139 42 -216 76 -231 9 -4 46 -11 82 -15 36 -5 84 -11 106
-15 38 -5 45 -3 76 28 90 87 119 108 146 108 36 -1 43 -7 151 -133 50 -59 110
-119 131 -133 64 -43 96 -26 211 112 152 183 165 187 265 92 81 -78 87 -81
132 -74 21 4 70 10 111 15 61 7 77 12 92 32 26 34 48 121 61 243 l12 106 79 0
c73 0 81 -2 105 -28 15 -15 36 -34 48 -42 12 -8 30 -36 42 -63 12 -26 28 -50
36 -53 9 -4 32 7 55 25 21 17 44 31 51 31 30 0 70 -36 85 -77 16 -42 19 -44
49 -38 20 4 46 24 74 56 24 27 52 49 61 49 11 0 25 -15 36 -40 10 -22 23 -40
29 -40 34 0 96 82 96 126 0 12 6 15 25 10 21 -5 28 0 50 39 l27 45 244 0 244
0 0 60 0 60 -234 0 -235 0 6 35 c3 19 0 56 -8 82 -17 64 -111 156 -205 203
-76 38 -53 36 -356 32 l-137 -2 -46 -35 c-25 -19 -47 -35 -50 -35 -3 0 8 26
24 58 94 186 114 301 109 628 l-3 253 31 33 c18 19 34 49 38 71 5 27 14 40 30
47 40 15 94 69 106 106 8 24 10 76 5 168 -7 126 -2 196 14 196 3 0 20 -30 35
-66 38 -86 70 -124 105 -124 50 0 80 54 112 203 25 121 24 147 -11 217 -37 74
-60 90 -126 90 -79 0 -179 35 -269 94 -44 30 -95 58 -114 65 -80 26 -199 5
-315 -58 -39 -21 -110 -59 -158 -85 l-88 -48 -147 15 c-181 18 -624 16 -803
-2 l-125 -14 -55 37 c-76 51 -265 143 -320 155 -82 19 -140 13 -205 -19z m264
-26 c36 -13 102 -46 146 -73 44 -27 103 -60 131 -74 l52 -26 113 14 c156 18
696 19 842 0 59 -8 115 -11 125 -8 9 4 52 28 95 55 151 94 270 141 362 142 83
1 158 -35 239 -117 71 -70 109 -139 152 -269 15 -48 29 -86 31 -84 1 1 -8 56
-22 122 -14 65 -25 130 -25 143 0 21 3 23 31 17 17 -3 49 -20 70 -37 36 -28
58 -27 24 1 -35 29 -1 56 35 27 66 -52 73 -104 39 -268 -24 -119 -44 -169 -65
-169 -45 0 -73 40 -120 173 -69 191 -152 310 -262 374 -40 24 -58 28 -122 28
-63 0 -85 -5 -135 -29 -63 -31 -165 -124 -165 -150 0 -13 12 -16 60 -16 62 0
81 -13 33 -23 -16 -3 -37 -13 -48 -21 -20 -15 -20 -15 5 -16 38 -1 70 -11 64
-21 -3 -5 -13 -9 -22 -9 -10 0 -22 -8 -29 -19 -10 -16 -7 -20 23 -35 19 -9 48
-16 64 -16 42 0 37 -15 -10 -29 -22 -6 -40 -15 -40 -19 0 -4 24 -22 53 -39 28
-18 66 -44 82 -58 30 -26 30 -26 5 -22 -14 3 -33 2 -43 -2 -17 -6 -17 -8 2
-25 14 -13 40 -20 79 -22 31 -2 58 -3 60 -4 1 0 -4 -13 -13 -30 -24 -47 -20
-63 15 -55 31 7 39 -2 19 -22 -7 -7 -9 -19 -5 -28 5 -13 16 -16 49 -13 41 3
42 2 39 -24 -2 -16 -1 -28 2 -28 15 0 66 59 73 85 7 27 9 23 13 -30 l5 -60 17
30 c27 47 23 -1 -4 -55 -29 -56 -54 -65 -104 -38 -36 19 -38 19 -24 2 27 -34
40 -63 40 -89 0 -43 -15 -28 -58 59 -23 46 -62 106 -87 133 l-46 48 36 -49
c90 -122 95 -152 95 -539 0 -305 -1 -314 -26 -407 -31 -113 -85 -234 -121
-272 -32 -33 -65 -36 -93 -8 -29 29 -72 127 -78 178 -2 23 -6 41 -9 39 -2 -2
4 -105 13 -228 25 -341 8 -595 -43 -651 -19 -22 -52 -23 -97 -4 -47 20 -76 65
-86 138 -28 197 -60 471 -70 594 -17 214 -44 306 -107 366 -34 33 -92 58 -132
58 -51 0 -43 17 15 33 84 24 109 11 223 -118 36 -40 40 -43 24 -15 -40 64
-132 158 -167 170 -29 9 -48 7 -127 -16 -109 -31 -158 -50 -182 -72 -9 -8 -19
-13 -22 -10 -12 12 46 47 120 73 108 37 155 68 155 101 0 50 -91 149 -175 190
-42 20 -65 24 -140 24 -52 -1 -99 -6 -111 -13 -38 -21 -90 -72 -121 -118 -60
-87 -54 -115 34 -149 32 -12 84 -32 117 -46 32 -13 62 -21 66 -19 5 3 6 -4 3
-14 -5 -19 -5 -19 -38 0 -39 23 -152 49 -217 49 -39 0 -54 -6 -83 -32 -30 -25
-75 -93 -75 -112 0 -2 15 10 33 27 36 34 112 71 127 62 6 -4 -11 -23 -38 -44
-64 -51 -100 -95 -129 -159 -23 -48 -24 -63 -22 -190 1 -104 -3 -168 -20 -267
-18 -103 -21 -149 -16 -221 9 -116 -6 -188 -54 -256 -43 -61 -74 -85 -120 -92
-67 -10 -82 12 -106 153 -27 159 -35 327 -20 452 13 111 13 160 0 83 -12 -70
-30 -119 -45 -122 -15 -2 -48 47 -123 181 -76 135 -130 312 -141 457 -3 41 -3
183 1 315 7 219 10 244 30 285 l22 45 -47 -52 c-26 -29 -50 -53 -54 -53 -3 0
-13 21 -22 46 -8 25 -27 55 -41 66 -32 25 -55 69 -54 105 0 27 1 27 11 6 15
-31 26 -29 21 5 l-5 27 24 -27 c12 -14 33 -29 45 -33 21 -6 22 -4 17 24 -7 31
3 40 23 20 15 -15 54 -7 67 13 8 13 7 26 -2 50 -6 17 -10 33 -8 36 2 2 18 -4
36 -13 31 -16 31 -16 21 4 -17 31 -13 36 28 36 27 1 50 10 77 30 l39 30 -45 6
c-25 3 -38 8 -30 11 8 4 36 14 63 24 51 18 107 68 107 95 0 18 -27 29 -72 29
-16 0 -28 5 -28 10 0 6 14 10 30 10 17 0 45 7 62 16 30 16 31 17 13 30 -10 8
-25 14 -32 14 -7 0 -13 4 -13 9 0 5 23 11 50 15 28 4 50 11 50 16 0 13 -44 51
-78 67 -24 11 -20 12 36 7 38 -4 62 -2 62 4 0 21 -114 123 -168 149 -46 22
-70 28 -132 28 -64 0 -82 -4 -120 -27 -60 -36 -98 -72 -147 -138 -51 -69 -66
-99 -104 -208 -37 -103 -86 -190 -113 -198 -30 -10 -50 23 -79 133 -40 154
-43 183 -17 234 41 78 61 99 97 99 36 0 42 -10 18 -30 -8 -7 -15 -17 -15 -23
0 -5 8 -3 18 5 26 24 111 68 128 68 9 0 14 -5 11 -12 -3 -7 -22 -49 -41 -93
-19 -44 -38 -100 -41 -125 -6 -43 -5 -42 17 20 42 117 172 281 262 327 74 39
166 38 275 -3z m948 -1174 c26 -6 58 -19 70 -28 22 -17 21 -17 -47 -20 -39 -1
-85 -3 -102 -4 -18 0 -63 3 -101 7 -58 7 -65 10 -49 21 46 32 144 42 229 24z
m-143 -126 c11 -30 6 -61 -15 -88 -16 -21 -29 -26 -64 -26 -24 0 -46 4 -50 9
-3 5 15 9 41 8 56 -2 77 19 72 76 -4 38 5 50 16 21z m129 -17 c-8 -50 23 -82
77 -81 26 1 38 -2 32 -8 -5 -5 -29 -8 -53 -6 -40 3 -46 7 -63 41 -15 31 -16
44 -7 63 15 33 21 30 14 -9z m58 -384 c84 -42 172 -156 260 -336 58 -121 96
-260 109 -406 10 -114 31 -197 61 -247 23 -37 16 -62 -18 -70 -20 -5 -33 2
-71 39 -61 58 -119 97 -147 97 -25 0 -73 -45 -219 -204 -48 -53 -94 -96 -102
-96 -27 0 -74 44 -161 147 -153 183 -176 188 -293 73 -71 -69 -97 -82 -118
-57 -8 10 -1 28 28 71 49 72 79 169 91 295 13 137 26 202 66 321 47 144 104
258 152 308 22 23 73 58 113 78 40 20 77 43 81 50 4 8 12 14 18 14 20 0 -13
-41 -46 -57 -30 -14 -33 -20 -28 -45 6 -30 -7 -37 -26 -15 -8 10 -7 17 2 26
23 25 -26 -5 -68 -42 -48 -42 -91 -124 -100 -193 -12 -90 44 -324 82 -338 24
-9 38 8 63 77 35 97 79 173 107 186 41 19 98 -17 158 -97 29 -38 59 -68 71
-70 14 -2 32 10 54 34 71 81 76 156 20 271 -38 76 -141 189 -147 161 -2 -9
-11 -19 -20 -22 -12 -5 -14 0 -11 24 3 16 1 30 -3 30 -14 0 -69 52 -69 65 0 7
15 -2 33 -19 18 -17 53 -41 78 -53z m-181 -23 c0 -35 -17 -40 -29 -7 -10 26
-6 37 15 37 9 0 14 -11 14 -30z m40 0 c0 -20 -5 -30 -15 -30 -10 0 -15 10 -15
30 0 20 5 30 15 30 10 0 15 -10 15 -30z m50 13 c1 -17 1 -17 11 0 14 25 29 21
29 -7 0 -27 -21 -47 -28 -27 -3 9 -7 9 -18 1 -7 -7 -18 -9 -24 -5 -11 7 -14
38 -3 48 13 13 33 7 33 -10z m134 -72 c11 -1 17 -3 14 -7 -3 -3 -50 -7 -104
-10 -107 -6 -285 5 -246 15 19 5 254 6 336 2z m-1348 -207 c33 -4 52 -15 95
-59 87 -87 116 -157 85 -201 -14 -18 -16 -16 -37 31 l-23 50 -3 -45 c-7 -90
-23 -146 -51 -173 -40 -38 -78 -50 -110 -35 -32 16 -44 57 -38 129 4 39 1 62
-8 75 -13 17 -15 16 -24 -21 -6 -22 -16 -75 -21 -118 -13 -95 -21 -110 -65
-131 -82 -39 -120 -9 -121 92 0 37 4 87 8 112 13 75 -16 29 -44 -69 -32 -114
-35 -117 -86 -96 -33 13 -45 24 -54 52 -10 33 -7 127 8 171 3 10 -3 7 -16 -8
-12 -14 -24 -35 -27 -47 -16 -58 -48 0 -42 74 5 62 35 106 114 165 78 60 108
67 274 62 80 -3 164 -7 186 -10z m2697 -4 c158 -59 226 -151 203 -274 -9 -46
-21 -45 -46 3 -26 53 -42 61 -32 19 4 -18 7 -61 7 -95 0 -51 -4 -66 -23 -86
-29 -31 -71 -43 -87 -25 -7 7 -19 42 -28 78 -16 67 -45 145 -52 139 -2 -2 1
-41 5 -85 9 -87 1 -148 -23 -171 -11 -11 -26 -13 -57 -8 -50 9 -87 43 -95 89
-2 17 -10 65 -16 107 -11 73 -23 109 -32 99 -3 -3 -7 -48 -10 -100 -4 -82 -8
-97 -27 -112 -25 -21 -38 -22 -75 -8 -56 21 -85 76 -92 176 -6 79 -16 86 -34
23 -14 -44 -29 -46 -44 -5 -8 22 -4 37 19 81 31 60 87 129 119 148 13 7 79 14
157 18 74 3 152 6 172 7 21 1 61 -7 91 -18z m-2384 -242 c12 -35 9 -43 -14
-35 -16 7 -22 67 -6 67 5 0 14 -14 20 -32z m1731 -17 c0 -6 -4 -13 -10 -16 -5
-3 -10 1 -10 9 0 9 5 16 10 16 6 0 10 -4 10 -9z m-2590 -127 c0 -43 -15 -44
-29 -3 -12 36 -7 51 14 42 9 -3 15 -18 15 -39z m3450 22 c0 -31 -10 -56 -21
-56 -10 0 -12 40 -3 64 9 24 24 19 24 -8z m-3340 -151 c0 -13 3 -30 6 -39 8
-22 -19 -21 -39 2 -13 15 -22 44 -18 63 0 3 12 4 26 1 18 -3 25 -11 25 -27z
m460 13 c0 -38 -12 -68 -25 -68 -16 0 -25 22 -25 61 0 24 4 29 25 29 19 0 25
-5 25 -22z m2330 -7 c0 -39 -9 -61 -25 -61 -16 0 -25 22 -25 61 0 24 4 29 25
29 21 0 25 -5 25 -29z m439 -47 c-28 -30 -38 -21 -32 28 4 28 10 38 27 40 31
4 34 -37 5 -68z m-3003 4 c-3 -13 -6 -31 -6 -40 0 -26 -27 -22 -46 7 -20 31
-5 55 33 55 21 0 24 -4 19 -22z m2799 -12 c0 -16 -7 -33 -17 -40 -21 -13 -25
-10 -33 37 -7 38 -7 39 21 35 25 -2 29 -7 29 -32z"/>
<path d="M2584 3409 c44 -5 91 -19 130 -38 70 -36 97 -58 145 -121 45 -59 148
-166 186 -193 23 -16 18 -8 -18 33 -27 30 -58 72 -69 94 -27 52 -122 151 -175
183 -58 34 -136 53 -208 52 l-60 -2 69 -8z"/>
<path d="M1933 3403 c9 -2 23 -2 30 0 6 3 -1 5 -18 5 -16 0 -22 -2 -12 -5z"/>
<path d="M1815 3371 c-80 -38 -134 -87 -191 -172 -26 -39 -72 -98 -103 -132
-31 -33 -47 -55 -36 -49 26 14 93 84 140 147 88 118 163 184 241 215 27 10 40
19 29 20 -11 0 -47 -13 -80 -29z"/>
<path d="M1482 2554 c-12 -8 -29 -30 -38 -47 l-16 -32 28 26 c38 35 67 49 101
49 22 0 25 2 13 10 -22 15 -63 12 -88 -6z"/>
<path d="M2955 2561 c-15 -6 -10 -9 24 -15 28 -4 53 -17 72 -36 20 -19 29 -24
29 -13 0 8 -13 28 -29 44 -29 29 -58 35 -96 20z"/>
<path d="M1630 2553 c0 -5 5 -14 10 -19 7 -7 -7 -10 -42 -10 -37 1 -62 -5 -83
-19 -28 -19 -28 -20 -7 -23 15 -2 22 -10 22 -25 0 -46 60 -97 113 -97 37 0 77
36 77 69 0 16 -13 46 -28 67 -32 43 -62 71 -62 57z m-30 -94 c0 -24 -23 -21
-28 4 -2 10 3 17 12 17 10 0 16 -9 16 -21z"/>
<path d="M2858 2533 c-64 -70 -74 -114 -35 -151 44 -41 122 -20 151 42 9 19
16 39 16 44 0 6 10 12 23 15 18 3 14 7 -25 26 -36 16 -57 20 -84 15 -34 -6
-36 -6 -25 15 16 28 10 27 -21 -6z m40 -70 c-4 -22 -22 -20 -26 1 -2 10 3 16
13 16 10 0 15 -7 13 -17z"/>
</g>
</svg>
